<svg width="106" height="27" viewBox="0 0 106 27" fill="none" xmlns="http://www.w3.org/2000/svg">
<path d="M46.1885 15.7373C46.0889 17.1143 45.5791 18.1982 44.6592 18.9893C43.7451 19.7803 42.5381 20.1758 41.0381 20.1758C39.3975 20.1758 38.1055 19.625 37.1621 18.5234C36.2246 17.416 35.7559 15.8984 35.7559 13.9707V13.1885C35.7559 11.958 35.9727 10.874 36.4062 9.93652C36.8398 8.99902 37.458 8.28125 38.2607 7.7832C39.0693 7.2793 40.0068 7.02734 41.0732 7.02734C42.5498 7.02734 43.7393 7.42285 44.6416 8.21387C45.5439 9.00488 46.0654 10.1152 46.2061 11.5449H43.5693C43.5049 10.7188 43.2734 10.1211 42.875 9.75195C42.4824 9.37695 41.8818 9.18945 41.0732 9.18945C40.1943 9.18945 39.5352 9.50586 39.0957 10.1387C38.6621 10.7656 38.4395 11.7412 38.4277 13.0654V14.0322C38.4277 15.415 38.6357 16.4258 39.0518 17.0645C39.4736 17.7031 40.1357 18.0225 41.0381 18.0225C41.8525 18.0225 42.459 17.8379 42.8574 17.4688C43.2617 17.0938 43.4932 16.5166 43.5518 15.7373H46.1885Z" fill="#0A143A"/>
<path d="M50.2314 11.5273C50.9053 10.7188 51.752 10.3145 52.7715 10.3145C54.834 10.3145 55.8799 11.5127 55.9092 13.9092V20H53.3691V13.9795C53.3691 13.4346 53.252 13.0332 53.0176 12.7754C52.7832 12.5117 52.3936 12.3799 51.8486 12.3799C51.1045 12.3799 50.5654 12.667 50.2314 13.2412V20H47.6914V6.5H50.2314V11.5273Z" fill="#0A143A"/>
<path d="M63.3359 20C63.2188 19.7715 63.1338 19.4873 63.0811 19.1475C62.4658 19.833 61.666 20.1758 60.6816 20.1758C59.75 20.1758 58.9766 19.9062 58.3613 19.3672C57.752 18.8281 57.4473 18.1484 57.4473 17.3281C57.4473 16.3203 57.8193 15.5469 58.5635 15.0078C59.3135 14.4688 60.3945 14.1963 61.8066 14.1904H62.9756V13.6455C62.9756 13.2061 62.8613 12.8545 62.6328 12.5908C62.4102 12.3271 62.0557 12.1953 61.5693 12.1953C61.1416 12.1953 60.8047 12.2979 60.5586 12.5029C60.3184 12.708 60.1982 12.9893 60.1982 13.3467H57.6582C57.6582 12.7959 57.8281 12.2861 58.168 11.8174C58.5078 11.3486 58.9883 10.9824 59.6094 10.7188C60.2305 10.4492 60.9277 10.3145 61.7012 10.3145C62.873 10.3145 63.8018 10.6104 64.4873 11.2021C65.1787 11.7881 65.5244 12.6143 65.5244 13.6807V17.8027C65.5303 18.7051 65.6562 19.3877 65.9023 19.8506V20H63.3359ZM61.2354 18.2334C61.6104 18.2334 61.9561 18.1514 62.2725 17.9873C62.5889 17.8174 62.8232 17.5918 62.9756 17.3105V15.6758H62.0264C60.7549 15.6758 60.0781 16.1152 59.9961 16.9941L59.9873 17.1436C59.9873 17.46 60.0986 17.7207 60.3213 17.9258C60.5439 18.1309 60.8486 18.2334 61.2354 18.2334Z" fill="#0A143A"/>
<path d="M69.8135 10.4902L69.8926 11.5889C70.5723 10.7393 71.4834 10.3145 72.626 10.3145C73.6338 10.3145 74.3838 10.6104 74.876 11.2021C75.3682 11.7939 75.6201 12.6787 75.6318 13.8564V20H73.0918V13.918C73.0918 13.3789 72.9746 12.9893 72.7402 12.749C72.5059 12.5029 72.1162 12.3799 71.5713 12.3799C70.8564 12.3799 70.3203 12.6846 69.9629 13.2939V20H67.4229V10.4902H69.8135Z" fill="#0A143A"/>
<path d="M81.5205 18.1279C81.9893 18.1279 82.3701 17.999 82.6631 17.7412C82.9561 17.4834 83.1084 17.1406 83.1201 16.7129H85.502C85.4961 17.3574 85.3203 17.9492 84.9746 18.4883C84.6289 19.0215 84.1543 19.4375 83.5508 19.7363C82.9531 20.0293 82.291 20.1758 81.5645 20.1758C80.2051 20.1758 79.1328 19.7451 78.3477 18.8838C77.5625 18.0166 77.1699 16.8213 77.1699 15.2979V15.1309C77.1699 13.666 77.5596 12.4971 78.3389 11.624C79.1182 10.751 80.1875 10.3145 81.5469 10.3145C82.7363 10.3145 83.6885 10.6543 84.4033 11.334C85.124 12.0078 85.4902 12.9072 85.502 14.0322H83.1201C83.1084 13.54 82.9561 13.1416 82.6631 12.8369C82.3701 12.5264 81.9834 12.3711 81.5029 12.3711C80.9111 12.3711 80.4629 12.5879 80.1582 13.0215C79.8594 13.4492 79.71 14.1465 79.71 15.1133V15.377C79.71 16.3555 79.8594 17.0586 80.1582 17.4863C80.457 17.9141 80.9111 18.1279 81.5205 18.1279Z" fill="#0A143A"/>
<path d="M91.3291 20.1758C89.9346 20.1758 88.7979 19.748 87.9189 18.8926C87.0459 18.0371 86.6094 16.8975 86.6094 15.4736V15.2275C86.6094 14.2725 86.7939 13.4199 87.1631 12.6699C87.5322 11.9141 88.0537 11.334 88.7275 10.9297C89.4072 10.5195 90.1807 10.3145 91.0479 10.3145C92.3486 10.3145 93.3711 10.7246 94.1152 11.5449C94.8652 12.3652 95.2402 13.5283 95.2402 15.0342V16.0713H89.1846C89.2666 16.6924 89.5127 17.1904 89.9229 17.5654C90.3389 17.9404 90.8633 18.1279 91.4961 18.1279C92.4746 18.1279 93.2393 17.7734 93.79 17.0645L95.0381 18.4619C94.6572 19.001 94.1416 19.4229 93.4912 19.7275C92.8408 20.0264 92.1201 20.1758 91.3291 20.1758ZM91.0391 12.3711C90.5352 12.3711 90.125 12.541 89.8086 12.8809C89.498 13.2207 89.2988 13.707 89.2109 14.3398H92.7441V14.1377C92.7324 13.5752 92.5801 13.1416 92.2871 12.8369C91.9941 12.5264 91.5781 12.3711 91.0391 12.3711Z" fill="#0A143A"/>
<path d="M105.356 20H96.585V18.2598L100.725 13.8477C101.293 13.2266 101.712 12.6846 101.981 12.2217C102.257 11.7588 102.395 11.3193 102.395 10.9033C102.395 10.335 102.251 9.88965 101.964 9.56738C101.677 9.23926 101.267 9.0752 100.733 9.0752C100.159 9.0752 99.7051 9.27441 99.3711 9.67285C99.043 10.0654 98.8789 10.584 98.8789 11.2285H96.3301C96.3301 10.4492 96.5146 9.7373 96.8838 9.09277C97.2588 8.44824 97.7861 7.94434 98.4658 7.58105C99.1455 7.21191 99.916 7.02734 100.777 7.02734C102.096 7.02734 103.118 7.34375 103.845 7.97656C104.577 8.60938 104.943 9.50293 104.943 10.6572C104.943 11.29 104.779 11.9346 104.451 12.5908C104.123 13.2471 103.561 14.0117 102.764 14.8848L99.8545 17.9521H105.356V20Z" fill="#0A143A"/>
<g clip-path="url(#clip0)">
<path d="M26.9947 6.65895C26.9632 6.36854 26.7827 6.11151 26.513 5.98563L13.8567 0.0793852C13.6306 -0.0261362 13.3693 -0.0261362 13.1431 0.0793852L0.486896 5.98563C0.217213 6.11151 0.0367559 6.36849 0.00516797 6.65895C0.00448242 6.66501 0 6.7458 0 6.75023V21.094C0 21.439 0.210041 21.7493 0.530402 21.8773L13.1867 26.9398C13.2872 26.9801 13.3936 27.0002 13.5 27.0002C13.6064 27.0002 13.7128 26.9801 13.8133 26.9398L26.4696 21.8773C26.79 21.7493 27 21.439 27 21.094V6.75023C27 6.7458 26.9954 6.66496 26.9947 6.65895ZM13.5 1.77506L24.0334 6.69064L19.9774 8.31307L9.24576 3.7604L13.5 1.77506ZM7.18822 4.72059L17.7533 9.20264L13.5 10.904L2.96662 6.69064L7.18822 4.72059ZM1.6875 7.99645L12.6562 12.3839V24.9102L1.6875 20.5227V7.99645ZM14.3438 24.9103V12.3839L25.3125 7.99645V20.5227L14.3438 24.9103Z" fill="#0A143A"/>
</g>
<defs>
<clipPath id="clip0">
<rect width="27" height="27" fill="white"/>
</clipPath>
</defs>
</svg>
